<svg id="Vector_Smart_Object_Doble_Click_to_Edit_" data-name="Vector Smart Object (Doble Click to Edit)" xmlns="http://www.w3.org/2000/svg" xmlns:xlink="http://www.w3.org/1999/xlink" width="414" height="414" viewBox="0 0 414 414">
  <defs>
    <clipPath id="clip-path">
      <rect id="Rectangle_3" data-name="Rectangle 3" width="413.943" height="413.943" transform="translate(1700.543 897.718)" fill="#fcfcfc"/>
    </clipPath>
    <pattern id="pattern" preserveAspectRatio="none" width="100%" height="100%" viewBox="0 0 0 0">
      <image/>
    </pattern>
  </defs>
  <g id="Vector_Smart_Object" data-name="Vector Smart Object">
    <g id="Vector_Smart_Object-2" data-name="Vector Smart Object" transform="translate(-1700.486 -897.661)">
      <g id="Group_3" data-name="Group 3">
        <g id="Group_2" data-name="Group 2">
          <rect id="Rectangle_1" data-name="Rectangle 1" width="413.943" height="413.943" transform="translate(1700.543 897.718)" fill="#fcfcfc"/>
          <g id="Group_1" data-name="Group 1" clip-path="url(#clip-path)">
            <rect id="Rectangle_2" data-name="Rectangle 2" width="414" height="414" transform="translate(1700.487 897.661)" fill="#fcfcfc"/>
          </g>
        </g>
        <rect id="Rectangle_4" data-name="Rectangle 4" width="14.276" height="14.276" transform="translate(1843.245 926.212)"/>
        <rect id="Rectangle_5" data-name="Rectangle 5" width="14.276" height="14.276" transform="translate(1871.797 926.212)"/>
        <rect id="Rectangle_6" data-name="Rectangle 6" width="14.276" height="14.276" transform="translate(1886.073 926.212)"/>
        <rect id="Rectangle_7" data-name="Rectangle 7" width="14.276" height="14.276" transform="translate(1928.9 926.212)"/>
        <rect id="Rectangle_8" data-name="Rectangle 8" width="14.276" height="14.276" transform="translate(1857.521 940.488)"/>
        <rect id="Rectangle_9" data-name="Rectangle 9" width="14.276" height="14.276" transform="translate(1871.797 940.488)"/>
        <rect id="Rectangle_10" data-name="Rectangle 10" width="14.276" height="14.276" transform="translate(1900.348 940.488)"/>
        <rect id="Rectangle_11" data-name="Rectangle 11" width="14.276" height="14.276" transform="translate(1843.245 954.764)"/>
        <rect id="Rectangle_12" data-name="Rectangle 12" width="14.276" height="14.276" transform="translate(1857.521 954.764)"/>
        <rect id="Rectangle_13" data-name="Rectangle 13" width="14.276" height="14.276" transform="translate(1900.348 954.764)"/>
        <rect id="Rectangle_14" data-name="Rectangle 14" width="14.276" height="14.276" transform="translate(1914.625 954.764)"/>
        <rect id="Rectangle_15" data-name="Rectangle 15" width="14.276" height="14.276" transform="translate(1943.176 954.764)"/>
        <rect id="Rectangle_16" data-name="Rectangle 16" width="14.276" height="14.276" transform="translate(1957.452 954.764)"/>
        <rect id="Rectangle_17" data-name="Rectangle 17" width="14.276" height="14.276" transform="translate(1871.797 969.04)"/>
        <rect id="Rectangle_18" data-name="Rectangle 18" width="14.276" height="14.276" transform="translate(1886.073 969.04)"/>
        <rect id="Rectangle_19" data-name="Rectangle 19" width="14.276" height="14.276" transform="translate(1914.625 969.04)"/>
        <rect id="Rectangle_20" data-name="Rectangle 20" width="14.276" height="14.276" transform="translate(1928.9 969.04)"/>
        <rect id="Rectangle_21" data-name="Rectangle 21" width="14.276" height="14.276" transform="translate(1957.452 969.04)"/>
        <rect id="Rectangle_22" data-name="Rectangle 22" width="14.276" height="14.276" transform="translate(1857.521 983.316)"/>
        <rect id="Rectangle_23" data-name="Rectangle 23" width="14.276" height="14.276" transform="translate(1886.073 983.316)"/>
        <rect id="Rectangle_24" data-name="Rectangle 24" width="14.276" height="14.276" transform="translate(1928.9 983.316)"/>
        <rect id="Rectangle_25" data-name="Rectangle 25" width="14.276" height="14.276" transform="translate(1843.245 997.592)"/>
        <rect id="Rectangle_26" data-name="Rectangle 26" width="14.276" height="14.276" transform="translate(1871.797 997.592)"/>
        <rect id="Rectangle_27" data-name="Rectangle 27" width="14.276" height="14.276" transform="translate(1914.625 997.592)"/>
        <rect id="Rectangle_28" data-name="Rectangle 28" width="14.276" height="14.276" transform="translate(1957.452 997.592)"/>
        <rect id="Rectangle_29" data-name="Rectangle 29" width="14.276" height="14.276" transform="translate(1843.245 1011.868)"/>
        <rect id="Rectangle_30" data-name="Rectangle 30" width="14.276" height="14.276" transform="translate(1871.797 1011.868)"/>
        <rect id="Rectangle_31" data-name="Rectangle 31" width="14.276" height="14.276" transform="translate(1900.348 1011.868)"/>
        <rect id="Rectangle_32" data-name="Rectangle 32" width="14.276" height="14.276" transform="translate(1928.9 1011.868)"/>
        <rect id="Rectangle_33" data-name="Rectangle 33" width="14.276" height="14.276" transform="translate(1957.452 1011.868)"/>
        <rect id="Rectangle_34" data-name="Rectangle 34" width="14.276" height="14.276" transform="translate(1928.9 1026.144)"/>
        <rect id="Rectangle_35" data-name="Rectangle 35" width="14.276" height="14.276" transform="translate(1957.452 1026.144)"/>
        <rect id="Rectangle_36" data-name="Rectangle 36" width="14.276" height="14.276" transform="translate(1729.038 1040.42)"/>
        <rect id="Rectangle_37" data-name="Rectangle 37" width="14.276" height="14.276" transform="translate(1757.59 1040.42)"/>
        <rect id="Rectangle_38" data-name="Rectangle 38" width="14.276" height="14.276" transform="translate(1814.694 1040.42)"/>
        <rect id="Rectangle_39" data-name="Rectangle 39" width="14.276" height="14.276" transform="translate(1828.969 1040.42)"/>
        <rect id="Rectangle_40" data-name="Rectangle 40" width="14.276" height="14.276" transform="translate(1871.797 1040.42)"/>
        <rect id="Rectangle_41" data-name="Rectangle 41" width="14.276" height="14.276" transform="translate(1886.073 1040.42)"/>
        <rect id="Rectangle_42" data-name="Rectangle 42" width="14.276" height="14.276" transform="translate(1928.9 1040.42)"/>
        <rect id="Rectangle_43" data-name="Rectangle 43" width="14.276" height="14.276" transform="translate(1943.176 1040.42)"/>
        <rect id="Rectangle_44" data-name="Rectangle 44" width="14.276" height="14.276" transform="translate(1957.452 1040.42)"/>
        <rect id="Rectangle_45" data-name="Rectangle 45" width="14.276" height="14.276" transform="translate(2000.279 1040.42)"/>
        <rect id="Rectangle_46" data-name="Rectangle 46" width="14.276" height="14.276" transform="translate(2043.107 1040.42)"/>
        <rect id="Rectangle_47" data-name="Rectangle 47" width="14.276" height="14.276" transform="translate(2071.659 1040.42)"/>
        <rect id="Rectangle_48" data-name="Rectangle 48" width="14.276" height="14.276" transform="translate(1729.038 1054.695)"/>
        <rect id="Rectangle_49" data-name="Rectangle 49" width="14.276" height="14.276" transform="translate(1743.314 1054.695)"/>
        <rect id="Rectangle_50" data-name="Rectangle 50" width="14.276" height="14.276" transform="translate(1800.417 1054.695)"/>
        <rect id="Rectangle_51" data-name="Rectangle 51" width="14.276" height="14.276" transform="translate(1828.969 1054.695)"/>
        <rect id="Rectangle_52" data-name="Rectangle 52" width="14.276" height="14.276" transform="translate(1843.245 1054.695)"/>
        <rect id="Rectangle_53" data-name="Rectangle 53" width="14.276" height="14.276" transform="translate(1871.797 1054.695)"/>
        <rect id="Rectangle_54" data-name="Rectangle 54" width="14.276" height="14.276" transform="translate(1914.625 1054.695)"/>
        <rect id="Rectangle_55" data-name="Rectangle 55" width="14.276" height="14.276" transform="translate(1943.176 1054.695)"/>
        <rect id="Rectangle_56" data-name="Rectangle 56" width="14.276" height="14.276" transform="translate(1957.452 1054.695)"/>
        <rect id="Rectangle_57" data-name="Rectangle 57" width="14.276" height="14.276" transform="translate(1971.728 1054.695)"/>
        <rect id="Rectangle_58" data-name="Rectangle 58" width="14.276" height="14.276" transform="translate(1986.004 1054.695)"/>
        <rect id="Rectangle_59" data-name="Rectangle 59" width="14.276" height="14.276" transform="translate(2000.279 1054.695)"/>
        <rect id="Rectangle_60" data-name="Rectangle 60" width="14.276" height="14.276" transform="translate(2028.831 1054.695)"/>
        <rect id="Rectangle_61" data-name="Rectangle 61" width="14.276" height="14.276" transform="translate(2057.383 1054.695)"/>
        <rect id="Rectangle_62" data-name="Rectangle 62" width="14.276" height="14.276" transform="translate(2071.659 1054.695)"/>
        <rect id="Rectangle_63" data-name="Rectangle 63" width="14.276" height="14.276" transform="translate(1743.314 1068.971)"/>
        <rect id="Rectangle_64" data-name="Rectangle 64" width="14.276" height="14.276" transform="translate(1757.59 1068.971)"/>
        <rect id="Rectangle_65" data-name="Rectangle 65" width="14.276" height="14.276" transform="translate(1786.142 1068.971)"/>
        <rect id="Rectangle_66" data-name="Rectangle 66" width="14.276" height="14.276" transform="translate(1800.417 1068.971)"/>
        <rect id="Rectangle_67" data-name="Rectangle 67" width="14.276" height="14.276" transform="translate(1814.694 1068.971)"/>
        <rect id="Rectangle_68" data-name="Rectangle 68" width="14.276" height="14.276" transform="translate(1828.969 1068.971)"/>
        <rect id="Rectangle_69" data-name="Rectangle 69" width="14.276" height="14.276" transform="translate(1843.245 1068.971)"/>
        <rect id="Rectangle_70" data-name="Rectangle 70" width="14.276" height="14.276" transform="translate(1886.073 1068.971)"/>
        <rect id="Rectangle_71" data-name="Rectangle 71" width="14.276" height="14.276" transform="translate(1900.348 1068.971)"/>
        <rect id="Rectangle_72" data-name="Rectangle 72" width="14.276" height="14.276" transform="translate(1943.176 1068.971)"/>
        <rect id="Rectangle_73" data-name="Rectangle 73" width="14.276" height="14.276" transform="translate(1986.004 1068.971)"/>
        <rect id="Rectangle_74" data-name="Rectangle 74" width="14.276" height="14.276" transform="translate(2028.831 1068.971)"/>
        <rect id="Rectangle_75" data-name="Rectangle 75" width="14.276" height="14.276" transform="translate(2043.107 1068.971)"/>
        <rect id="Rectangle_76" data-name="Rectangle 76" width="14.276" height="14.276" transform="translate(2071.659 1068.971)"/>
        <rect id="Rectangle_77" data-name="Rectangle 77" width="14.276" height="14.276" transform="translate(1729.038 1083.247)"/>
        <rect id="Rectangle_78" data-name="Rectangle 78" width="14.276" height="14.276" transform="translate(1743.314 1083.247)"/>
        <rect id="Rectangle_79" data-name="Rectangle 79" width="14.276" height="14.276" transform="translate(1757.59 1083.247)"/>
        <rect id="Rectangle_80" data-name="Rectangle 80" width="14.276" height="14.276" transform="translate(1786.142 1083.247)"/>
        <rect id="Rectangle_81" data-name="Rectangle 81" width="14.276" height="14.276" transform="translate(1857.521 1083.247)"/>
        <rect id="Rectangle_82" data-name="Rectangle 82" width="14.276" height="14.276" transform="translate(1900.348 1083.247)"/>
        <rect id="Rectangle_83" data-name="Rectangle 83" width="14.276" height="14.276" transform="translate(1957.452 1083.247)"/>
        <rect id="Rectangle_84" data-name="Rectangle 84" width="14.276" height="14.276" transform="translate(1971.728 1083.247)"/>
        <rect id="Rectangle_85" data-name="Rectangle 85" width="14.276" height="14.276" transform="translate(1986.004 1083.247)"/>
        <rect id="Rectangle_86" data-name="Rectangle 86" width="14.276" height="14.276" transform="translate(2000.279 1083.247)"/>
        <rect id="Rectangle_87" data-name="Rectangle 87" width="14.276" height="14.276" transform="translate(2028.831 1083.247)"/>
        <rect id="Rectangle_88" data-name="Rectangle 88" width="14.276" height="14.276" transform="translate(1729.038 1097.523)"/>
        <rect id="Rectangle_89" data-name="Rectangle 89" width="14.276" height="14.276" transform="translate(1771.866 1097.523)"/>
        <rect id="Rectangle_90" data-name="Rectangle 90" width="14.276" height="14.276" transform="translate(1800.417 1097.523)"/>
        <rect id="Rectangle_91" data-name="Rectangle 91" width="14.276" height="14.276" transform="translate(1814.694 1097.523)"/>
        <rect id="Rectangle_92" data-name="Rectangle 92" width="14.276" height="14.276" transform="translate(1828.969 1097.523)"/>
        <rect id="Rectangle_93" data-name="Rectangle 93" width="14.276" height="14.276" transform="translate(1843.245 1097.523)"/>
        <rect id="Rectangle_94" data-name="Rectangle 94" width="14.276" height="14.276" transform="translate(1871.797 1097.523)"/>
        <rect id="Rectangle_95" data-name="Rectangle 95" width="14.276" height="14.276" transform="translate(1943.176 1097.523)"/>
        <rect id="Rectangle_96" data-name="Rectangle 96" width="14.276" height="14.276" transform="translate(1957.452 1097.523)"/>
        <rect id="Rectangle_97" data-name="Rectangle 97" width="14.276" height="14.276" transform="translate(1986.004 1097.523)"/>
        <rect id="Rectangle_98" data-name="Rectangle 98" width="14.276" height="14.276" transform="translate(2071.659 1097.523)"/>
        <rect id="Rectangle_99" data-name="Rectangle 99" width="14.276" height="14.276" transform="translate(1743.314 1111.799)"/>
        <rect id="Rectangle_100" data-name="Rectangle 100" width="14.276" height="14.276" transform="translate(1786.142 1111.799)"/>
        <rect id="Rectangle_101" data-name="Rectangle 101" width="14.276" height="14.276" transform="translate(1800.417 1111.799)"/>
        <rect id="Rectangle_102" data-name="Rectangle 102" width="14.276" height="14.276" transform="translate(1828.969 1111.799)"/>
        <rect id="Rectangle_103" data-name="Rectangle 103" width="14.276" height="14.276" transform="translate(1943.176 1111.799)"/>
        <rect id="Rectangle_104" data-name="Rectangle 104" width="14.276" height="14.276" transform="translate(1957.452 1111.799)"/>
        <rect id="Rectangle_105" data-name="Rectangle 105" width="14.276" height="14.276" transform="translate(1971.728 1111.799)"/>
        <rect id="Rectangle_106" data-name="Rectangle 106" width="14.276" height="14.276" transform="translate(1986.004 1111.799)"/>
        <rect id="Rectangle_107" data-name="Rectangle 107" width="14.276" height="14.276" transform="translate(2000.279 1111.799)"/>
        <rect id="Rectangle_108" data-name="Rectangle 108" width="14.276" height="14.276" transform="translate(2057.383 1111.799)"/>
        <rect id="Rectangle_109" data-name="Rectangle 109" width="14.276" height="14.276" transform="translate(2071.659 1111.799)"/>
        <rect id="Rectangle_110" data-name="Rectangle 110" width="14.276" height="14.276" transform="translate(1729.038 1126.075)"/>
        <rect id="Rectangle_111" data-name="Rectangle 111" width="14.276" height="14.276" transform="translate(1743.314 1126.075)"/>
        <rect id="Rectangle_112" data-name="Rectangle 112" width="14.276" height="14.276" transform="translate(1757.59 1126.075)"/>
        <rect id="Rectangle_113" data-name="Rectangle 113" width="14.276" height="14.276" transform="translate(1814.694 1126.075)"/>
        <rect id="Rectangle_114" data-name="Rectangle 114" width="14.276" height="14.276" transform="translate(1843.245 1126.075)"/>
        <rect id="Rectangle_115" data-name="Rectangle 115" width="14.276" height="14.276" transform="translate(1857.521 1126.075)"/>
        <rect id="Rectangle_116" data-name="Rectangle 116" width="14.276" height="14.276" transform="translate(1871.797 1126.075)"/>
        <rect id="Rectangle_117" data-name="Rectangle 117" width="14.276" height="14.276" transform="translate(1886.073 1126.075)"/>
        <rect id="Rectangle_118" data-name="Rectangle 118" width="14.276" height="14.276" transform="translate(1928.9 1126.075)"/>
        <rect id="Rectangle_119" data-name="Rectangle 119" width="14.276" height="14.276" transform="translate(1943.176 1126.075)"/>
        <rect id="Rectangle_120" data-name="Rectangle 120" width="14.276" height="14.276" transform="translate(1957.452 1126.075)"/>
        <rect id="Rectangle_121" data-name="Rectangle 121" width="14.276" height="14.276" transform="translate(1986.004 1126.075)"/>
        <rect id="Rectangle_122" data-name="Rectangle 122" width="14.276" height="14.276" transform="translate(2028.831 1126.075)"/>
        <rect id="Rectangle_123" data-name="Rectangle 123" width="14.276" height="14.276" transform="translate(2043.107 1126.075)"/>
        <rect id="Rectangle_124" data-name="Rectangle 124" width="14.276" height="14.276" transform="translate(2071.659 1126.075)"/>
        <rect id="Rectangle_125" data-name="Rectangle 125" width="14.276" height="14.276" transform="translate(1771.866 1140.351)"/>
        <rect id="Rectangle_126" data-name="Rectangle 126" width="14.276" height="14.276" transform="translate(1843.245 1140.351)"/>
        <rect id="Rectangle_127" data-name="Rectangle 127" width="14.276" height="14.276" transform="translate(1928.9 1140.351)"/>
        <rect id="Rectangle_128" data-name="Rectangle 128" width="14.276" height="14.276" transform="translate(1943.176 1140.351)"/>
        <rect id="Rectangle_129" data-name="Rectangle 129" width="14.276" height="14.276" transform="translate(1971.728 1140.351)"/>
        <rect id="Rectangle_130" data-name="Rectangle 130" width="14.276" height="14.276" transform="translate(1986.004 1140.351)"/>
        <rect id="Rectangle_131" data-name="Rectangle 131" width="14.276" height="14.276" transform="translate(2000.279 1140.351)"/>
        <rect id="Rectangle_132" data-name="Rectangle 132" width="14.276" height="14.276" transform="translate(2014.556 1140.351)"/>
        <rect id="Rectangle_133" data-name="Rectangle 133" width="14.276" height="14.276" transform="translate(2028.831 1140.351)"/>
        <rect id="Rectangle_134" data-name="Rectangle 134" width="14.276" height="14.276" transform="translate(1729.038 1154.626)"/>
        <rect id="Rectangle_135" data-name="Rectangle 135" width="14.276" height="14.276" transform="translate(1743.314 1154.626)"/>
        <rect id="Rectangle_136" data-name="Rectangle 136" width="14.276" height="14.276" transform="translate(1771.866 1154.626)"/>
        <rect id="Rectangle_137" data-name="Rectangle 137" width="14.276" height="14.276" transform="translate(1786.142 1154.626)"/>
        <rect id="Rectangle_138" data-name="Rectangle 138" width="14.276" height="14.276" transform="translate(1814.694 1154.626)"/>
        <rect id="Rectangle_139" data-name="Rectangle 139" width="14.276" height="14.276" transform="translate(1828.969 1154.626)"/>
        <rect id="Rectangle_140" data-name="Rectangle 140" width="14.276" height="14.276" transform="translate(1886.073 1154.626)"/>
        <rect id="Rectangle_141" data-name="Rectangle 141" width="14.276" height="14.276" transform="translate(1900.348 1154.626)"/>
        <rect id="Rectangle_142" data-name="Rectangle 142" width="14.276" height="14.276" transform="translate(1943.176 1154.626)"/>
        <rect id="Rectangle_143" data-name="Rectangle 143" width="14.276" height="14.276" transform="translate(1957.452 1154.626)"/>
        <rect id="Rectangle_144" data-name="Rectangle 144" width="14.276" height="14.276" transform="translate(1971.728 1154.626)"/>
        <rect id="Rectangle_145" data-name="Rectangle 145" width="14.276" height="14.276" transform="translate(1986.004 1154.626)"/>
        <rect id="Rectangle_146" data-name="Rectangle 146" width="14.276" height="14.276" transform="translate(2000.279 1154.626)"/>
        <rect id="Rectangle_147" data-name="Rectangle 147" width="14.276" height="14.276" transform="translate(2014.556 1154.626)"/>
        <rect id="Rectangle_148" data-name="Rectangle 148" width="14.276" height="14.276" transform="translate(2057.383 1154.626)"/>
        <rect id="Rectangle_149" data-name="Rectangle 149" width="14.276" height="14.276" transform="translate(1843.245 1168.902)"/>
        <rect id="Rectangle_150" data-name="Rectangle 150" width="14.276" height="14.276" transform="translate(1857.521 1168.902)"/>
        <rect id="Rectangle_151" data-name="Rectangle 151" width="14.276" height="14.276" transform="translate(1900.348 1168.902)"/>
        <rect id="Rectangle_152" data-name="Rectangle 152" width="14.276" height="14.276" transform="translate(1914.625 1168.902)"/>
        <rect id="Rectangle_153" data-name="Rectangle 153" width="14.276" height="14.276" transform="translate(1943.176 1168.902)"/>
        <rect id="Rectangle_154" data-name="Rectangle 154" width="14.276" height="14.276" transform="translate(1957.452 1168.902)"/>
        <rect id="Rectangle_155" data-name="Rectangle 155" width="14.276" height="14.276" transform="translate(2014.556 1168.902)"/>
        <rect id="Rectangle_156" data-name="Rectangle 156" width="14.276" height="14.276" transform="translate(2071.659 1168.902)"/>
        <rect id="Rectangle_157" data-name="Rectangle 157" width="14.276" height="14.276" transform="translate(1843.245 1183.178)"/>
        <rect id="Rectangle_158" data-name="Rectangle 158" width="14.276" height="14.276" transform="translate(1871.797 1183.178)"/>
        <rect id="Rectangle_159" data-name="Rectangle 159" width="14.276" height="14.276" transform="translate(1900.348 1183.178)"/>
        <rect id="Rectangle_160" data-name="Rectangle 160" width="14.276" height="14.276" transform="translate(1957.452 1183.178)"/>
        <rect id="Rectangle_161" data-name="Rectangle 161" width="14.276" height="14.276" transform="translate(1986.004 1183.178)"/>
        <rect id="Rectangle_162" data-name="Rectangle 162" width="14.276" height="14.276" transform="translate(2014.556 1183.178)"/>
        <rect id="Rectangle_163" data-name="Rectangle 163" width="14.276" height="14.276" transform="translate(2071.659 1183.178)"/>
        <rect id="Rectangle_164" data-name="Rectangle 164" width="14.276" height="14.276" transform="translate(1886.073 1197.454)"/>
        <rect id="Rectangle_165" data-name="Rectangle 165" width="14.276" height="14.276" transform="translate(1900.348 1197.454)"/>
        <rect id="Rectangle_166" data-name="Rectangle 166" width="14.276" height="14.276" transform="translate(1928.9 1197.454)"/>
        <rect id="Rectangle_167" data-name="Rectangle 167" width="14.276" height="14.276" transform="translate(1943.176 1197.454)"/>
        <rect id="Rectangle_168" data-name="Rectangle 168" width="14.276" height="14.276" transform="translate(1957.452 1197.454)"/>
        <rect id="Rectangle_169" data-name="Rectangle 169" width="14.276" height="14.276" transform="translate(2014.556 1197.454)"/>
        <rect id="Rectangle_170" data-name="Rectangle 170" width="14.276" height="14.276" transform="translate(1871.797 1211.73)"/>
        <rect id="Rectangle_171" data-name="Rectangle 171" width="14.276" height="14.276" transform="translate(1900.348 1211.73)"/>
        <rect id="Rectangle_172" data-name="Rectangle 172" width="14.276" height="14.276" transform="translate(1943.176 1211.73)"/>
        <rect id="Rectangle_173" data-name="Rectangle 173" width="14.276" height="14.276" transform="translate(1957.452 1211.73)"/>
        <rect id="Rectangle_174" data-name="Rectangle 174" width="14.276" height="14.276" transform="translate(1971.728 1211.73)"/>
        <rect id="Rectangle_175" data-name="Rectangle 175" width="14.276" height="14.276" transform="translate(1986.004 1211.73)"/>
        <rect id="Rectangle_176" data-name="Rectangle 176" width="14.276" height="14.276" transform="translate(2000.279 1211.73)"/>
        <rect id="Rectangle_177" data-name="Rectangle 177" width="14.276" height="14.276" transform="translate(2014.556 1211.73)"/>
        <rect id="Rectangle_178" data-name="Rectangle 178" width="14.276" height="14.276" transform="translate(2057.383 1211.73)"/>
        <rect id="Rectangle_179" data-name="Rectangle 179" width="14.276" height="14.276" transform="translate(1857.521 1226.006)"/>
        <rect id="Rectangle_180" data-name="Rectangle 180" width="14.276" height="14.276" transform="translate(1914.625 1226.006)"/>
        <rect id="Rectangle_181" data-name="Rectangle 181" width="14.276" height="14.276" transform="translate(1957.452 1226.006)"/>
        <rect id="Rectangle_182" data-name="Rectangle 182" width="14.276" height="14.276" transform="translate(2014.556 1226.006)"/>
        <rect id="Rectangle_183" data-name="Rectangle 183" width="14.276" height="14.276" transform="translate(2043.107 1226.006)"/>
        <rect id="Rectangle_184" data-name="Rectangle 184" width="14.276" height="14.276" transform="translate(2057.383 1226.006)"/>
        <rect id="Rectangle_185" data-name="Rectangle 185" width="14.276" height="14.276" transform="translate(1843.245 1240.282)"/>
        <rect id="Rectangle_186" data-name="Rectangle 186" width="14.276" height="14.276" transform="translate(1871.797 1240.282)"/>
        <rect id="Rectangle_187" data-name="Rectangle 187" width="14.276" height="14.276" transform="translate(1886.073 1240.282)"/>
        <rect id="Rectangle_188" data-name="Rectangle 188" width="14.276" height="14.276" transform="translate(1914.625 1240.282)"/>
        <rect id="Rectangle_189" data-name="Rectangle 189" width="14.276" height="14.276" transform="translate(1957.452 1240.282)"/>
        <rect id="Rectangle_190" data-name="Rectangle 190" width="14.276" height="14.276" transform="translate(1971.728 1240.282)"/>
        <rect id="Rectangle_191" data-name="Rectangle 191" width="14.276" height="14.276" transform="translate(2000.279 1240.282)"/>
        <rect id="Rectangle_192" data-name="Rectangle 192" width="14.276" height="14.276" transform="translate(2014.556 1240.282)"/>
        <rect id="Rectangle_193" data-name="Rectangle 193" width="14.276" height="14.276" transform="translate(2028.831 1240.282)"/>
        <rect id="Rectangle_194" data-name="Rectangle 194" width="14.276" height="14.276" transform="translate(2057.383 1240.282)"/>
        <rect id="Rectangle_195" data-name="Rectangle 195" width="14.276" height="14.276" transform="translate(2071.659 1240.282)"/>
        <rect id="Rectangle_196" data-name="Rectangle 196" width="14.276" height="14.276" transform="translate(1857.521 1254.558)"/>
        <rect id="Rectangle_197" data-name="Rectangle 197" width="14.276" height="14.276" transform="translate(1886.073 1254.558)"/>
        <rect id="Rectangle_198" data-name="Rectangle 198" width="14.276" height="14.276" transform="translate(1900.348 1254.558)"/>
        <rect id="Rectangle_199" data-name="Rectangle 199" width="14.276" height="14.276" transform="translate(1928.9 1254.558)"/>
        <rect id="Rectangle_200" data-name="Rectangle 200" width="14.276" height="14.276" transform="translate(1957.452 1254.558)"/>
        <rect id="Rectangle_201" data-name="Rectangle 201" width="14.276" height="14.276" transform="translate(1971.728 1254.558)"/>
        <rect id="Rectangle_202" data-name="Rectangle 202" width="14.276" height="14.276" transform="translate(1986.004 1254.558)"/>
        <rect id="Rectangle_203" data-name="Rectangle 203" width="14.276" height="14.276" transform="translate(2000.279 1254.558)"/>
        <rect id="Rectangle_204" data-name="Rectangle 204" width="14.276" height="14.276" transform="translate(2014.556 1254.558)"/>
        <rect id="Rectangle_205" data-name="Rectangle 205" width="14.276" height="14.276" transform="translate(1843.245 1268.834)"/>
        <rect id="Rectangle_206" data-name="Rectangle 206" width="14.276" height="14.276" transform="translate(1871.797 1268.834)"/>
        <rect id="Rectangle_207" data-name="Rectangle 207" width="14.276" height="14.276" transform="translate(1900.348 1268.834)"/>
        <rect id="Rectangle_208" data-name="Rectangle 208" width="14.276" height="14.276" transform="translate(1928.9 1268.834)"/>
        <rect id="Rectangle_209" data-name="Rectangle 209" width="14.276" height="14.276" transform="translate(1957.452 1268.834)"/>
        <rect id="Rectangle_210" data-name="Rectangle 210" width="14.276" height="14.276" transform="translate(1971.728 1268.834)"/>
        <rect id="Rectangle_211" data-name="Rectangle 211" width="14.276" height="14.276" transform="translate(2028.831 1268.834)"/>
        <rect id="Rectangle_212" data-name="Rectangle 212" width="14.276" height="14.276" transform="translate(2071.659 1268.834)"/>
        <path id="Path_1" data-name="Path 1" d="M1813.979,926.211h-84.942v99.932h99.932V926.211Zm0,84.942h-69.951V941.2h69.951Z"/>
        <path id="Path_2" data-name="Path 2" d="M2070.946,926.211H1986v99.932h99.932V926.211Zm0,84.942h-69.951V941.2h69.951Z"/>
        <path id="Path_3" data-name="Path 3" d="M1813.979,1183.178h-84.942v99.932h99.932v-99.932Zm0,84.942h-69.951v-69.952h69.951Z"/>
        <rect id="Rectangle_213" data-name="Rectangle 213" width="42.827" height="42.828" transform="translate(1757.59 954.764)"/>
        <rect id="Rectangle_214" data-name="Rectangle 214" width="42.827" height="42.828" transform="translate(2014.556 954.764)"/>
        <rect id="Rectangle_215" data-name="Rectangle 215" width="42.827" height="42.828" transform="translate(1757.59 1211.73)"/>
      </g>
    </g>
  </g>
  <rect id="Place_your_Design_Here" data-name="Place your Design Here" fill="url(#pattern)"/>
</svg>
