<?xml version="1.0" encoding="utf-8"?>
<!-- Generator: Adobe Illustrator 21.0.0, SVG Export Plug-In . SVG Version: 6.00 Build 0)  -->
<svg version="1.1" id="Layer_2" xmlns="http://www.w3.org/2000/svg" xmlns:xlink="http://www.w3.org/1999/xlink" x="0px" y="0px"
	 viewBox="0 0 196.9 64.3" style="enable-background:new 0 0 196.9 64.3;" xml:space="preserve">
<style type="text/css">
	.st0{fill:#FFFFFF;}
	.st1{font-family:'AntipastoPro-Extralight';}
	.st2{font-size:43.0775px;}
	.st3{fill:url(#SVGID_1_);}
	.st4{fill:url(#SVGID_2_);}
	.st5{fill:#F1F2F2;}
</style>
<title>Logo-final</title>
<text transform="matrix(1 0 0 1 73.8767 45.8392)" class="st0 st1 st2">Psyche</text>
<linearGradient id="SVGID_1_" gradientUnits="userSpaceOnUse" x1="4.5314" y1="-168.7625" x2="62.6297" y2="-106.238" gradientTransform="matrix(1 0 0 -1 0 -110)">
	<stop  offset="0" style="stop-color:#B1B7C2"/>
	<stop  offset="1" style="stop-color:#FFFFFF"/>
</linearGradient>
<path class="st3" d="M18.3,2.1c6.3-6.9,41.8,15,43.4,30C63.4,47,26.3,71,15.6,60.9C6.2,52.1,1.3,20.7,18.3,2.1z"/>
<linearGradient id="SVGID_2_" gradientUnits="userSpaceOnUse" x1="-116.906" y1="-283.8823" x2="-60.9808" y2="-228.5411" gradientTransform="matrix(0.988 -0.1542 -0.1542 -0.988 71.2779 -226.3075)">
	<stop  offset="0" style="stop-color:#12378F"/>
	<stop  offset="0.43" style="stop-color:#7D2F90"/>
	<stop  offset="0.82" style="stop-color:#DA2992"/>
	<stop  offset="1" style="stop-color:#FF2692"/>
</linearGradient>
<path class="st4" d="M36.7,59.6C28.3,63.4-1.5,36.1,0.6,23S30,0.3,49.3,8.2C70.1,16.7,68.8,44.8,36.7,59.6z"/>
<path class="st5" d="M38,35.5h-4.6c-0.7,0-1.3-0.6-1.3-1.3c0-0.7,0.6-1.3,1.3-1.3H38c3.6,0,6.4-2.9,6.4-6.4S41.5,20,38,20H24.6
	c-0.7,0-1.3-0.6-1.3-1.3c0-0.7,0.6-1.3,1.3-1.3H38c5-0.1,9.1,3.9,9.2,8.9c0.1,5-3.9,9.1-8.9,9.2C38.2,35.5,38.1,35.5,38,35.5
	L38,35.5z"/>
<path class="st5" d="M27.6,21.5L27.6,21.5c0.8,0,1.4,0.6,1.4,1.4v23.5c0,0.8-0.6,1.4-1.4,1.4h0c-0.8,0-1.4-0.6-1.4-1.4V22.9
	C26.2,22.2,26.8,21.5,27.6,21.5z"/>
<path class="st5" d="M33.5,21.5L33.5,21.5c0.8,0,1.4,0.6,1.4,1.4v23.5c0,0.8-0.6,1.4-1.4,1.4h0c-0.8,0-1.4-0.6-1.4-1.4V22.9
	C32,22.2,32.7,21.5,33.5,21.5z"/>
<path class="st5" d="M24.1,38.5h13.2c0.2,0,0.3,0.2,0.3,0.3v0.5c0,0.2-0.2,0.3-0.3,0.3H24.1c-0.2,0-0.3-0.2-0.3-0.3v-0.5
	C23.8,38.6,23.9,38.5,24.1,38.5z"/>
<path class="st5" d="M24.1,42.9h13.2c0.2,0,0.3,0.2,0.3,0.3v0.5c0,0.2-0.2,0.3-0.3,0.3H24.1c-0.2,0-0.3-0.2-0.3-0.3v-0.5
	C23.8,43,23.9,42.9,24.1,42.9z"/>
</svg>
