<?xml version="1.0" encoding="utf-8"?>
<!-- Generator: Adobe Illustrator 21.0.0, SVG Export Plug-In . SVG Version: 6.00 Build 0)  -->
<svg version="1.1" id="Layer_1" xmlns="http://www.w3.org/2000/svg" xmlns:xlink="http://www.w3.org/1999/xlink" x="0px" y="0px"
	 viewBox="0 0 200 65" style="enable-background:new 0 0 200 65;" xml:space="preserve">
<style type="text/css">
	.st0{fill:#0F3082;}
	.st1{font-family:'AntipastoPro-Extralight';}
	.st2{font-size:43.7451px;}
	.st3{fill:url(#SVGID_1_);}
	.st4{fill:url(#SVGID_2_);}
	.st5{fill:#F1F2F2;}
	.st6{display:none;}
	.st7{display:inline;}
	.st8{fill:#FFFFFF;}
	.st9{display:inline;fill:url(#SVGID_3_);}
	.st10{display:inline;fill:url(#SVGID_4_);}
</style>
<g>
	<g>
		<text transform="matrix(1 0 0 1 75.3107 46.5238)" class="st0 st1 st2">Psyche</text>
	</g>
	<linearGradient id="SVGID_1_" gradientUnits="userSpaceOnUse" x1="4.893" y1="59.6485" x2="63.8912" y2="-3.8445">
		<stop  offset="0" style="stop-color:#B1B7C2"/>
		<stop  offset="1" style="stop-color:#FFFFFF"/>
	</linearGradient>
	<path class="st3" d="M18.9,2.1c6.4-7,42.4,15.2,44.1,30.4c1.7,15.2-36,39.5-46.9,29.3C6.6,52.9,1.6,21,18.9,2.1z"/>
	
		<linearGradient id="SVGID_2_" gradientUnits="userSpaceOnUse" x1="-100.7248" y1="97.9169" x2="-43.9316" y2="41.7183" gradientTransform="matrix(0.988 -0.1542 0.1542 0.988 84.2489 -38.9754)">
		<stop  offset="0" style="stop-color:#12378F"/>
		<stop  offset="0.4258" style="stop-color:#7D2F90"/>
		<stop  offset="0.8226" style="stop-color:#DA2992"/>
		<stop  offset="1" style="stop-color:#FF2692"/>
	</linearGradient>
	<path class="st4" d="M37.5,60.5C29.1,64.3-1.2,36.6,0.9,23.4C3.1,10.1,30.7,0.3,50.4,8.3C71.5,16.9,70.2,45.5,37.5,60.5z"/>
	<g>
		<path class="st5" d="M38.9,36h-4.7c-0.7,0-1.3-0.6-1.3-1.3c0-0.7,0.6-1.3,1.3-1.3h4.7c3.7,0,6.6-2.9,6.6-6.5s-2.9-6.5-6.6-6.5
			H25.3c-0.7,0-1.3-0.6-1.3-1.3s0.6-1.3,1.3-1.3h13.6c5.2,0,9.2,4,9.2,9.2S44.1,36,38.9,36z"/>
		<path class="st5" d="M28.3,48.5L28.3,48.5c-0.8,0-1.4-0.6-1.4-1.4V23.3c0-0.8,0.6-1.4,1.4-1.4h0c0.8,0,1.4,0.6,1.4,1.4v23.8
			C29.8,47.9,29.1,48.5,28.3,48.5z"/>
		<path class="st5" d="M34.3,48.5L34.3,48.5c-0.8,0-1.4-0.6-1.4-1.4V23.3c0-0.8,0.6-1.4,1.4-1.4h0c0.8,0,1.4,0.6,1.4,1.4v23.8
			C35.7,47.9,35.1,48.5,34.3,48.5z"/>
		<path class="st5" d="M38.2,40.2H24.8c-0.2,0-0.3-0.2-0.3-0.3v-0.5c0-0.2,0.2-0.3,0.3-0.3h13.4c0.2,0,0.3,0.2,0.3,0.3v0.5
			C38.5,40.1,38.4,40.2,38.2,40.2z"/>
		<path class="st5" d="M38.2,44.7H24.8c-0.2,0-0.3-0.2-0.3-0.3v-0.5c0-0.2,0.2-0.3,0.3-0.3h13.4c0.2,0,0.3,0.2,0.3,0.3v0.5
			C38.5,44.6,38.4,44.7,38.2,44.7z"/>
	</g>
</g>
<g class="st6">
	<g class="st7">
		<text transform="matrix(1 0 0 1 75.3108 46.5238)" class="st8 st1 st2">Psyche</text>
	</g>
	<linearGradient id="SVGID_3_" gradientUnits="userSpaceOnUse" x1="4.893" y1="59.6485" x2="63.8913" y2="-3.8445">
		<stop  offset="0" style="stop-color:#B1B7C2"/>
		<stop  offset="1" style="stop-color:#FFFFFF"/>
	</linearGradient>
	<path class="st9" d="M18.9,2.1c6.4-7,42.4,15.2,44.1,30.4c1.7,15.2-36,39.5-46.9,29.3C6.6,52.9,1.6,21,18.9,2.1z"/>
	
		<linearGradient id="SVGID_4_" gradientUnits="userSpaceOnUse" x1="-100.7247" y1="97.9169" x2="-43.9315" y2="41.7183" gradientTransform="matrix(0.988 -0.1542 0.1542 0.988 84.2489 -38.9754)">
		<stop  offset="0" style="stop-color:#12378F"/>
		<stop  offset="0.4258" style="stop-color:#7D2F90"/>
		<stop  offset="0.8226" style="stop-color:#DA2992"/>
		<stop  offset="1" style="stop-color:#FF2692"/>
	</linearGradient>
	<path class="st10" d="M37.5,60.5C29.1,64.3-1.2,36.6,0.9,23.4C3.1,10.1,30.7,0.3,50.4,8.3C71.5,16.9,70.2,45.5,37.5,60.5z"/>
	<g class="st7">
		<path class="st5" d="M38.9,36h-4.7c-0.7,0-1.3-0.6-1.3-1.3c0-0.7,0.6-1.3,1.3-1.3h4.7c3.7,0,6.6-2.9,6.6-6.5s-2.9-6.5-6.6-6.5
			H25.3c-0.7,0-1.3-0.6-1.3-1.3s0.6-1.3,1.3-1.3h13.6c5.2,0,9.2,4,9.2,9.2S44.1,36,38.9,36z"/>
		<path class="st5" d="M28.3,48.5L28.3,48.5c-0.8,0-1.4-0.6-1.4-1.4V23.3c0-0.8,0.6-1.4,1.4-1.4h0c0.8,0,1.4,0.6,1.4,1.4v23.8
			C29.8,47.9,29.1,48.5,28.3,48.5z"/>
		<path class="st5" d="M34.3,48.5L34.3,48.5c-0.8,0-1.4-0.6-1.4-1.4V23.3c0-0.8,0.6-1.4,1.4-1.4l0,0c0.8,0,1.4,0.6,1.4,1.4v23.8
			C35.7,47.9,35.1,48.5,34.3,48.5z"/>
		<path class="st5" d="M38.2,40.2H24.8c-0.2,0-0.3-0.2-0.3-0.3v-0.5c0-0.2,0.2-0.3,0.3-0.3h13.4c0.2,0,0.3,0.2,0.3,0.3v0.5
			C38.5,40.1,38.4,40.2,38.2,40.2z"/>
		<path class="st5" d="M38.2,44.7H24.8c-0.2,0-0.3-0.2-0.3-0.3v-0.5c0-0.2,0.2-0.3,0.3-0.3h13.4c0.2,0,0.3,0.2,0.3,0.3v0.5
			C38.5,44.6,38.4,44.7,38.2,44.7z"/>
	</g>
</g>
</svg>
